# xmcd
#
# Track frame offsets:
#	150
#	21217
#	43281
#	65231
#	81461
#	97322
#	126321
#	156308
#	186922
#	206668
#	234521
#	266957
#	307751
#
# Disc length: 4443 seconds
#
# Revision: 2
# Processed by: cddbd v1.5.2PL0 Copyright (c) Steve Scherf et al.
# Submitted via: audiograbber 1.83.01
#
DISCID=c911590d
DTITLE=Eric Clapton - The Best Of [CD2)
DYEAR=1900
DGENRE=
TTITLE0=Say What You Will
TTITLE1=I Ain't Gonna Stand For It
TTITLE2=So Tired
TTITLE3=Back Home
TTITLE4=If I Had Possession Over Judgement
TTITLE5=Old Love
TTITLE6=Bell Bottom Blues
TTITLE7=Badge
TTITLE8=Cocaine
TTITLE9=White Room
TTITLE10=Sunshine Of Your Love
TTITLE11=Layla
TTITLE12=Over The Rainbow
EXTD=
EXTT0=
EXTT1=
EXTT2=
EXTT3=
EXTT4=
EXTT5=
EXTT6=
EXTT7=
EXTT8=
EXTT9=
EXTT10=
EXTT11=
EXTT12=
PLAYORDER=
